<svg width="29" height="29" viewBox="0 0 29 29" fill="none" xmlns="http://www.w3.org/2000/svg">
<path d="M25.7985 20.2144V23.7144C25.7998 24.0393 25.7333 24.3609 25.6031 24.6586C25.4729 24.9563 25.282 25.2236 25.0426 25.4432C24.8032 25.6629 24.5205 25.8301 24.2127 25.9342C23.9049 26.0383 23.5788 26.077 23.2552 26.0477C19.6651 25.6576 16.2167 24.4309 13.1868 22.4661C10.368 20.6748 7.97806 18.2849 6.18684 15.4661C4.21515 12.4225 2.98812 8.95722 2.60517 5.35106C2.57602 5.02844 2.61436 4.70328 2.71776 4.39629C2.82115 4.0893 2.98734 3.8072 3.20573 3.56795C3.42413 3.32871 3.68994 3.13756 3.98626 3.00667C4.28258 2.87579 4.6029 2.80804 4.92684 2.80773H8.42684C8.99303 2.80216 9.54193 3.00266 9.97123 3.37185C10.4005 3.74105 10.6809 4.25375 10.7602 4.8144C10.9079 5.93447 11.1819 7.03424 11.5768 8.09273C11.7338 8.51031 11.7678 8.96413 11.6747 9.40042C11.5817 9.83672 11.3655 10.2372 11.0518 10.5544L9.57017 12.0361C11.231 14.9569 13.6494 17.3752 16.5702 19.0361L18.0518 17.5544C18.369 17.2407 18.7695 17.0246 19.2058 16.9315C19.6421 16.8385 20.0959 16.8724 20.5135 17.0294C21.572 17.4244 22.6718 17.6983 23.7918 17.8461C24.3586 17.926 24.8761 18.2115 25.2461 18.6481C25.6161 19.0848 25.8127 19.6422 25.7985 20.2144Z" stroke="#2F80ED" stroke-width="2" stroke-linecap="round" stroke-linejoin="round"/>
</svg>
