<svg width="14" height="14" viewBox="0 0 14 14" fill="none" xmlns="http://www.w3.org/2000/svg">
<path d="M12.8319 9.86941V11.6194C12.8325 11.7819 12.7993 11.9427 12.7342 12.0915C12.6691 12.2404 12.5736 12.374 12.4539 12.4838C12.3342 12.5937 12.1929 12.6773 12.039 12.7293C11.8851 12.7814 11.722 12.8007 11.5602 12.7861C9.76519 12.591 8.04095 11.9777 6.52604 10.9952C5.1166 10.0996 3.92165 8.90467 3.02604 7.49524C2.04019 5.97344 1.42668 4.24082 1.2352 2.43774C1.22063 2.27643 1.2398 2.11385 1.2915 1.96035C1.34319 1.80686 1.42629 1.66581 1.53548 1.54618C1.64468 1.42656 1.77759 1.33099 1.92575 1.26554C2.07391 1.2001 2.23407 1.16622 2.39604 1.16607H4.14604C4.42913 1.16329 4.70358 1.26353 4.91823 1.44813C5.13288 1.63273 5.27308 1.88908 5.3127 2.16941C5.38657 2.72944 5.52355 3.27933 5.72104 3.80857C5.79952 4.01736 5.81651 4.24427 5.76998 4.46242C5.72346 4.68057 5.61537 4.8808 5.45854 5.03941L4.7177 5.78024C5.54811 7.24064 6.7573 8.44983 8.2177 9.28024L8.95854 8.53941C9.11714 8.38257 9.31738 8.27448 9.53552 8.22796C9.75367 8.18144 9.98058 8.19842 10.1894 8.27691C10.7186 8.47439 11.2685 8.61138 11.8285 8.68524C12.1119 8.72521 12.3707 8.86794 12.5557 9.08628C12.7407 9.30461 12.839 9.58332 12.8319 9.86941Z" stroke="#2F80ED" stroke-linecap="round" stroke-linejoin="round"/>
</svg>
