<svg width="141" height="34" viewBox="0 0 141 34" fill="none" xmlns="http://www.w3.org/2000/svg">
<mask id="mask0_2219_4157" style="mask-type:alpha" maskUnits="userSpaceOnUse" x="0" y="10" width="35" height="21">
<path fill-rule="evenodd" clip-rule="evenodd" d="M18.61 10.6645L33.0815 18.3259C34.8789 19.2774 34.8788 21.8522 33.0815 22.8038L18.61 30.4651C17.8686 30.8577 16.9809 30.8577 16.2394 30.4651L1.76795 22.8038C-0.0294325 21.8522 -0.0294124 19.2774 1.76796 18.3259L16.2394 10.6645L17.1284 12.3437L2.65695 20.0051C2.20761 20.243 2.20761 20.8867 2.65695 21.1246L17.1284 28.7859C17.3138 28.884 17.5357 28.884 17.721 28.7859L32.1925 21.1246C32.6418 20.8867 32.6418 20.243 32.1925 20.0051L17.721 12.3437C17.5357 12.2456 17.3138 12.2456 17.1284 12.3437L16.2394 10.6645C16.9809 10.272 17.8686 10.272 18.61 10.6645Z" fill="#5D5FEF"/>
</mask>
<g mask="url(#mask0_2219_4157)">
<path d="M16.9713 19.5609L5.12695 13.1712L20.0882 4.59961L28.6598 14.1063L23.6727 16.5219L16.9713 19.5609Z" fill="#2F80ED"/>
</g>
<path fill-rule="evenodd" clip-rule="evenodd" d="M18.61 0.470188L33.0815 8.13154C34.8789 9.08309 34.8788 11.6579 33.0815 12.6094L18.61 20.2708C17.8686 20.6633 16.9809 20.6633 16.2394 20.2708L1.76795 12.6094C-0.0294325 11.6579 -0.0294124 9.08308 1.76796 8.13153L16.2394 0.470188L17.1284 2.1494L2.65695 9.81075C2.20761 10.0486 2.20761 10.6923 2.65695 10.9302L17.1284 18.5916C17.3138 18.6897 17.5357 18.6897 17.721 18.5916L32.1925 10.9302C32.6418 10.6923 32.6418 10.0486 32.1925 9.81075L17.721 2.1494C17.5357 2.05127 17.3138 2.05127 17.1284 2.1494L16.2394 0.470188C16.9809 0.0776458 17.8686 0.0776455 18.61 0.470188Z" fill="#222222"/>
<path fill-rule="evenodd" clip-rule="evenodd" d="M0.421875 14.0449L14.7843 21.6471C15.8211 22.1959 16.4696 23.2728 16.4696 24.4459V25.8819L14.5696 24.8765V24.4459C14.5696 23.9767 14.3102 23.5459 13.8955 23.3264L2.3219 17.2004V18.8515C2.3219 19.3208 2.58136 19.7516 2.99616 19.9711L14.784 26.2084C15.821 26.7571 16.4696 27.8342 16.4696 29.0074V33.8145L2.10742 26.2143C1.07048 25.6655 0.421875 24.5885 0.421875 23.4153V21.977L2.3219 22.9821V23.4153C2.3219 23.8846 2.58134 24.3154 2.99611 24.5349L14.5696 30.6594V29.0074C14.5696 28.5381 14.3101 28.1073 13.8953 27.8878L2.10753 21.6505C1.07052 21.1018 0.421875 20.0247 0.421875 18.8515V14.0449Z" fill="#222222"/>
<path fill-rule="evenodd" clip-rule="evenodd" d="M34.4227 14.0479V17.3921L32.5227 18.4V17.204L20.9489 23.3328C20.5343 23.5524 20.275 23.9831 20.275 24.4523V30.667L31.8488 24.5384C32.2634 24.3189 32.5227 23.8881 32.5227 23.419V21.7687L26.4017 25.0075V22.8575L34.4227 18.6137V23.419C34.4227 24.5919 33.7745 25.6687 32.7379 26.2175L18.375 33.823V24.4523C18.375 23.2794 19.0232 22.2026 20.0597 21.6537L34.4227 14.0479Z" fill="#222222"/>
<path d="M45.4217 23.9721C47.7434 23.9721 49.1262 22.521 49.1432 20.7285C49.1945 16.6996 43.5609 17.3654 43.5779 14.7706C43.5779 13.8828 44.3291 13.2341 45.4217 13.2341C46.3606 13.2341 47.2142 13.8316 47.7946 14.4804L48.853 13.3878C48.119 12.5001 46.9069 11.6806 45.3875 11.6806C43.3902 11.6806 41.9391 13.0293 41.922 14.7535C41.922 18.6629 47.5044 17.8434 47.5044 20.7114C47.5044 21.6674 46.7191 22.4015 45.5241 22.4015C44.4486 22.4015 43.4414 21.7357 42.7756 20.7797L41.5977 21.8894C42.3659 23.0673 43.7999 23.9721 45.4217 23.9721Z" fill="#222222"/>
<path d="M63.5241 23.8014L60.7756 11.6636H60.5366L56.7809 20.7456L53.0081 11.6636H52.7691L50.1401 23.8014H51.8131L53.3666 16.2216L56.6614 23.938H56.8833L60.2293 16.1363L61.8852 23.8014H63.5241Z" fill="#222222"/>
<path d="M72.7866 23.8014H74.562L69.2699 11.6806H69.0309L63.7558 23.8014H65.5483L66.6067 21.2577H71.7281L72.7866 23.8014ZM67.2554 19.6872L69.1674 15.0779L71.0794 19.6872H67.2554Z" fill="#222222"/>
<path d="M81.6439 23.8014H83.4876L80.5854 18.9872C82.139 18.458 83.0096 17.0923 83.0096 15.5388C83.0096 13.6438 81.5756 11.8513 79.1344 11.8513H75.8908V23.8014H77.5126V19.2091H79.0149L81.6439 23.8014ZM77.5126 13.439H79.0661C80.4318 13.439 81.3707 14.2926 81.3707 15.5388C81.3707 16.7679 80.4318 17.6386 79.0661 17.6386H77.5126V13.439Z" fill="#222222"/>
<path d="M91.5619 11.8513H83.9651V13.439H86.9867V23.8014H88.6085V13.439H91.5619V11.8513Z" fill="#222222"/>
<path d="M98.8634 17.4508V19.0214H101.936V21.5479C101.134 22.0942 100.058 22.4015 98.9146 22.4015C96.2515 22.4015 94.4248 20.3017 94.4248 17.8264C94.4248 15.3339 96.2515 13.2512 98.9146 13.2512C100.297 13.2512 101.407 13.7463 102.226 14.5828L103.319 13.4219C102.261 12.3293 100.741 11.6465 98.8975 11.6465C95.176 11.6465 92.7689 14.5145 92.7689 17.8264C92.7689 21.1382 95.176 24.0062 98.8975 24.0062C100.827 24.0062 102.5 23.3404 103.558 22.2308V17.4508H98.8634Z" fill="#2F80ED"/>
<path d="M112.671 13.4219V11.8513H106.116V23.8014H112.671V22.2308H107.738V18.4921H111.545V16.9386H107.738V13.4219H112.671Z" fill="#2F80ED"/>
<path d="M121.474 13.4219V11.8513H114.918V23.8014H121.474V22.2308H116.54V18.4921H120.347V16.9386H116.54V13.4219H121.474Z" fill="#2F80ED"/>
<path d="M132.018 23.8014L127.101 17.98L131.864 11.8513H129.935L125.343 17.7751V11.8513H123.721V23.8014H125.343V18.2873L129.986 23.8014H132.018Z" fill="#2F80ED"/>
<path d="M136.697 23.9721C139.019 23.9721 140.402 22.521 140.419 20.7285C140.47 16.6996 134.837 17.3654 134.854 14.7706C134.854 13.8828 135.605 13.2341 136.697 13.2341C137.636 13.2341 138.49 13.8316 139.07 14.4804L140.129 13.3878C139.395 12.5001 138.183 11.6806 136.663 11.6806C134.666 11.6806 133.215 13.0293 133.198 14.7535C133.198 18.6629 138.78 17.8434 138.78 20.7114C138.78 21.6674 137.995 22.4015 136.8 22.4015C135.724 22.4015 134.717 21.7357 134.051 20.7797L132.873 21.8894C133.642 23.0673 135.076 23.9721 136.697 23.9721Z" fill="#2F80ED"/>
</svg>
