<svg width="286" height="70" viewBox="0 0 286 70" fill="none" xmlns="http://www.w3.org/2000/svg">
<mask id="mask0_2206_4104" style="mask-type:alpha" maskUnits="userSpaceOnUse" x="0" y="21" width="70" height="43">
<path fill-rule="evenodd" clip-rule="evenodd" d="M37.2605 22.0443L66.798 37.6818C70.4666 39.624 70.4665 44.8794 66.7979 46.8216L37.2605 62.4591C35.7471 63.2603 33.9352 63.2603 32.4217 62.4591L2.88427 46.8216C-0.78436 44.8794 -0.784319 39.624 2.88427 37.6818L32.4217 22.0443L34.2363 25.4717L4.69879 41.1092C3.78164 41.5947 3.78164 42.9086 4.69879 43.3941L34.2363 59.0316C34.6146 59.2319 35.0676 59.2319 35.446 59.0316L64.9834 43.3941C65.9006 42.9086 65.9006 41.5947 64.9834 41.1092L35.446 25.4717C35.0676 25.2714 34.6146 25.2714 34.2363 25.4717L32.4217 22.0443C33.9352 21.2431 35.7471 21.2431 37.2605 22.0443Z" fill="#5D5FEF"/>
</mask>
<g mask="url(#mask0_2206_4104)">
<path d="M33.9176 40.2023L9.74219 27.1604L40.2795 9.66504L57.7749 29.069L47.5958 33.9995L33.9176 40.2023Z" fill="#2F80ED"/>
</g>
<path fill-rule="evenodd" clip-rule="evenodd" d="M37.2605 1.23568L66.798 16.8732C70.4666 18.8154 70.4665 24.0708 66.7979 26.013L37.2605 41.6505C35.7471 42.4517 33.9352 42.4517 32.4217 41.6505L2.88427 26.013C-0.78436 24.0708 -0.784319 18.8154 2.88427 16.8732L32.4217 1.23568L34.2363 4.66311L4.69879 20.3006C3.78164 20.7861 3.78164 22.1 4.69879 22.5855L34.2363 38.223C34.6146 38.4233 35.0676 38.4233 35.446 38.223L64.9834 22.5856C65.9006 22.1 65.9006 20.7861 64.9834 20.3006L35.446 4.66311C35.0676 4.4628 34.6146 4.4628 34.2363 4.66311L32.4217 1.23568C33.9352 0.434463 35.7471 0.434462 37.2605 1.23568Z" fill="#222222"/>
<path fill-rule="evenodd" clip-rule="evenodd" d="M0.136719 28.9434L29.4518 44.4601C31.568 45.5802 32.8916 47.7784 32.8916 50.1727V53.1037L29.0135 51.0516V50.1727C29.0135 49.215 28.484 48.3357 27.6376 47.8876L4.01483 35.3839V38.754C4.01483 39.7118 4.54441 40.5912 5.39106 41.0392L29.451 53.7701C31.5676 54.8901 32.8916 57.0885 32.8916 59.4831V69.2948L3.57706 53.7821C1.46057 52.6621 0.136719 50.4637 0.136719 48.0692V45.1333L4.01483 47.185V48.0692C4.01483 49.027 4.54437 49.9063 5.39097 50.3543L29.0135 62.8549V59.4831C29.0135 58.5253 28.4839 57.6459 27.6372 57.1979L3.57728 44.467C1.46067 43.347 0.136719 41.1486 0.136719 38.754V28.9434Z" fill="#222222"/>
<path fill-rule="evenodd" clip-rule="evenodd" d="M69.5361 28.9492V35.7751L65.658 37.8323V35.3912L42.0349 47.9007C41.1886 48.3488 40.6594 49.228 40.6594 50.1855V62.8703L64.2825 50.3614C65.1287 49.9132 65.658 49.0341 65.658 48.0765V44.7081L53.1645 51.3187V46.9305L69.5361 38.2685V48.0765C69.5361 50.4705 68.2129 52.6684 66.0973 53.7886L36.7812 69.3121V50.1855C36.7812 47.7916 38.1044 45.5938 40.22 44.4735L69.5361 28.9492Z" fill="#222222"/>
<path d="M91.9868 49.2055C96.7256 49.2055 99.548 46.2437 99.5829 42.5851C99.6874 34.3618 88.1887 35.7207 88.2236 30.4244C88.2236 28.6125 89.7567 27.2884 91.9868 27.2884C93.9032 27.2884 95.6454 28.5079 96.8302 29.832L98.9905 27.602C97.4922 25.7901 95.0183 24.1175 91.9171 24.1175C87.8403 24.1175 84.8785 26.8702 84.8437 30.3895C84.8437 38.3689 96.2378 36.6964 96.2378 42.5502C96.2378 44.5015 94.635 45.9998 92.1959 45.9998C90.0007 45.9998 87.9448 44.6409 86.5859 42.6896L84.1816 44.9545C85.7496 47.3588 88.6766 49.2055 91.9868 49.2055Z" fill="#222222"/>
<path d="M128.935 48.8571L123.326 24.0827H122.838L115.172 42.6199L107.471 24.0827H106.983L101.617 48.8571H105.032L108.203 33.3862L114.928 49.1358H115.381L122.21 33.2119L125.59 48.8571H128.935Z" fill="#222222"/>
<path d="M147.841 48.8571H151.465L140.663 24.1175H140.175L129.408 48.8571H133.067L135.227 43.6653H145.681L147.841 48.8571ZM136.551 40.4596L140.454 31.0516L144.357 40.4596H136.551Z" fill="#222222"/>
<path d="M165.92 48.8571H169.683L163.759 39.0309C166.93 37.9508 168.707 35.1632 168.707 31.9924C168.707 28.1246 165.78 24.466 160.797 24.466H154.177V48.8571H157.487V39.4839H160.553L165.92 48.8571ZM157.487 27.7065H160.658C163.446 27.7065 165.362 29.4487 165.362 31.9924C165.362 34.5012 163.446 36.2782 160.658 36.2782H157.487V27.7065Z" fill="#222222"/>
<path d="M186.163 24.466H170.657V27.7065H176.825V48.8571H180.135V27.7065H186.163V24.466Z" fill="#222222"/>
<path d="M201.066 35.895V39.1006H207.338V44.2576C205.7 45.3726 203.505 45.9998 201.171 45.9998C195.735 45.9998 192.007 41.714 192.007 36.6615C192.007 31.5742 195.735 27.3232 201.171 27.3232C203.993 27.3232 206.258 28.3337 207.93 30.0411L210.16 27.6717C208 25.4416 204.899 24.0479 201.136 24.0479C193.54 24.0479 188.627 29.9017 188.627 36.6615C188.627 43.4213 193.54 49.2752 201.136 49.2752C205.073 49.2752 208.488 47.9163 210.648 45.6514V35.895H201.066Z" fill="#2F80ED"/>
<path d="M229.25 27.6717V24.466H215.869V48.8571H229.25V45.6514H219.179V38.0205H226.95V34.8496H219.179V27.6717H229.25Z" fill="#2F80ED"/>
<path d="M247.216 27.6717V24.466H233.836V48.8571H247.216V45.6514H237.146V38.0205H244.916V34.8496H237.146V27.6717H247.216Z" fill="#2F80ED"/>
<path d="M268.737 48.8571L258.702 36.9751L268.423 24.466H264.486L255.113 36.557V24.466H251.803V48.8571H255.113V37.6023L264.59 48.8571H268.737Z" fill="#2F80ED"/>
<path d="M278.289 49.2055C283.027 49.2055 285.85 46.2437 285.885 42.5851C285.989 34.3618 274.491 35.7207 274.525 30.4244C274.525 28.6125 276.059 27.2884 278.289 27.2884C280.205 27.2884 281.947 28.5079 283.132 29.832L285.292 27.602C283.794 25.7901 281.32 24.1175 278.219 24.1175C274.142 24.1175 271.18 26.8702 271.146 30.3895C271.146 38.3689 282.54 36.6964 282.54 42.5502C282.54 44.5015 280.937 45.9998 278.498 45.9998C276.303 45.9998 274.247 44.6409 272.888 42.6896L270.483 44.9545C272.051 47.3588 274.978 49.2055 278.289 49.2055Z" fill="#2F80ED"/>
</svg>
